#!OML:ASF F:\VICON\USERDATA\INSTALL\rory3\rory3.ASF
:FULLY-SPECIFIED
:DEGREES
1291
root -1.25159 17.9227 1.51421 6.11596 4.26633 2.61258
lowerback 6.62425 1.68094 2.54779
upperback 1.90264 2.37836 -1.25966
thorax -1.59015 1.18717 -2.91264
lowerneck -21.1353 -14.0964 -15.9233
upperneck 12.2316 -17.6596 15.9062
head 10.2641 -7.52164 5.11671
rclavicle -1.80397e-014 4.37326e-015
rhumerus 25.1417 29.3789 -11.892
rradius 55.8447
rwrist 50.4345
rhand -67.7987 -3.57633
rfingers 7.12502
rthumb -39.5396 -28.9396
lclavicle -1.80397e-014 4.37326e-015
lhumerus -44.9611 13.5404 55.3426
lradius 44.0396
lwrist -5.07303
lhand -18.1749 22.5501
lfingers 7.12502
lthumb 8.10157 52.3748
rfemur -15.4165 -1.77786 19.7826
rtibia 31.7996
rfoot -21.787 -10.1799
rtoes 6.61876
lfemur -9.21185 -5.67632 -7.05014
ltibia 20.8824
lfoot -1.0457 6.27566
ltoes -35.9626
1292
root -1.25875 17.924 1.5142 6.01444 3.94467 2.65869
lowerback 6.87438 1.651 2.64118
upperback 1.77253 2.35127 -1.2391
thorax -1.8623 1.1668 -2.95444
lowerneck -21.0026 -14.1121 -15.7028
upperneck 12.3709 -17.741 15.6941
head 10.2575 -7.5727 4.99729
rclavicle 2.5842e-015 -1.51076e-014
rhumerus 26.2733 27.981 -10.9867
rradius 55.3609
rwrist 50.1144
rhand -68.1861 2.22923
rfingers 7.12502
rthumb -39.9043 -23.0256
lclavicle 2.5842e-015 -1.51076e-014
lhumerus -45.2966 13.8613 55.1438
lradius 43.376
lwrist -5.66977
lhand -17.8804 22.0243
lfingers 7.12502
lthumb 8.38572 51.8378
rfemur -15.3019 -1.50772 19.7341
rtibia 31.718
rfoot -21.6875 -10.1836
rtoes 5.80861
lfemur -9.06744 -5.50438 -7.11221
ltibia 20.9913
lfoot -0.884452 6.28738
ltoes -36.0636
1293
root -1.26297 17.9303 1.51661 5.96906 3.56929 2.73113
lowerback 6.92633 1.66809 2.71191
upperback 1.74434 2.38118 -1.19352
thorax -1.91721 1.18002 -2.95207
lowerneck -21.073 -14.0283 -15.6317
upperneck 12.5997 -17.6343 15.5513
head 10.3094 -7.52535 4.95803
rclavicle -3.25013e-014 -3.97569e-016
rhumerus 27.3437 26.1782 -10.2
rradius 54.7561
rwrist 49.7054
rhand -69.0057 10.9559
rfingers 7.12502
rthumb -40.6752 -14.0628
lclavicle -3.25013e-014 -3.97569e-016
lhumerus -45.3903 14.293 55.1426
lradius 42.64
lwrist -6.05782
lhand -17.8325 21.7937
lfingers 7.12502
lthumb 8.432 51.6054
rfemur -15.235 -1.28153 19.6311
rtibia 31.6329
rfoot -21.5828 -10.0719
rtoes 5.9846
lfemur -8.96317 -5.36165 -7.21742
ltibia 21.1385
lfoot -0.806607 6.36971
ltoes -36.2168
1294
root -1.26739 17.9369 1.5204 5.9639 3.20065 2.77422
lowerback 6.85456 1.71041 2.87039
upperback 1.77236 2.4468 -1.17806
thorax -1.83761 1.21418 -3.02677
lowerneck -21.1237 -13.9654 -15.6482
upperneck 12.6721 -17.5631 15.6344
head 10.3444 -7.48115 5.00401
rclavicle 8.64713e-015 -1.66979e-014
rhumerus 28.348 24.2281 -9.56849
rradius 54.0665
rwrist 49.4698
rhand -70.0014 15.9722
rfingers 7.12502
rthumb -41.6101 -8.74717
lclavicle 8.64713e-015 -1.66979e-014
lhumerus -45.3197 14.6362 55.2443
lradius 42.009
lwrist -6.26732
lhand -17.9246 21.4548
lfingers 7.12502
lthumb 8.34315 51.27
rfemur -15.2102 -1.04943 19.5573
rtibia 31.5482
rfoot -21.5077 -9.91637
rtoes 6.30338
lfemur -8.88862 -5.22587 -7.27611
ltibia 21.2657
lfoot -0.733794 6.45425
ltoes -36.2469
1295
root -1.27214 17.94 1.52482 5.93231 2.83043 2.85612
lowerback 6.58963 1.76735 3.01465
upperback 1.94265 2.52385 -1.18073
thorax -1.5024 1.26142 -3.10154
lowerneck -20.9318 -13.979 -15.6345
upperneck 12.3224 -17.6059 15.8175
head 10.2157 -7.5012 5.06368
rclavicle 3.28989e-014 -7.55382e-015
rhumerus 29.384 22.1562 -9.01788
rradius 53.4935
rwrist 49.2498
rhand -69.7461 15.8465
rfingers 7.12502
rthumb -41.3706 -8.95095
lclavicle 3.28989e-014 -7.55382e-015
lhumerus -45.0724 15.0297 55.4137
lradius 41.4546
lwrist -6.60262
lhand -17.7221 21.4826
lfingers 7.12502
lthumb 8.5385 51.29
rfemur -15.1384 -0.780516 19.446
rtibia 31.4372
rfoot -21.4462 -9.81281
rtoes 6.62473
lfemur -8.77996 -4.97948 -7.38132
ltibia 21.3817
lfoot -0.56468 6.44471
ltoes -36.3942
1296
root -1.27743 17.947 1.52985 5.96394 2.45477 2.93234
lowerback 6.06633 1.80371 3.13278
upperback 2.25482 2.56278 -1.14967
thorax -0.88274 1.29782 -3.10958
lowerneck -21.1594 -14.0358 -15.4014
upperneck 12.2009 -17.6595 15.636
head 10.176 -7.5232 4.9437
rclavicle 6.16232e-015 -1.55052e-014
rhumerus 30.6521 19.8414 -8.39534
rradius 52.9601
rwrist 48.9252
rhand -68.8152 14.1549
rfingers 7.12502
rthumb -40.4962 -10.9195
lclavicle 6.16232e-015 -1.55052e-014
lhumerus -44.6899 15.6195 55.6413
lradius 40.9117
lwrist -7.00189
lhand -17.5739 21.6629
lfingers 7.12502
lthumb 8.68158 51.4644
rfemur -15.1249 -0.520051 19.3454
rtibia 31.29
rfoot -21.3057 -9.75664
rtoes 6.36312
lfemur -8.78877 -4.71821 -7.47665
ltibia 21.5304
lfoot -0.336646 6.46448
ltoes -36.0995
1297
root -1.28364 17.9549 1.53259 5.98581 2.14459 2.94429
lowerback 5.93715 1.80871 3.287
upperback 2.31493 2.57431 -1.09657
thorax -0.743443 1.30765 -3.13535
lowerneck -21.3817 -14.0161 -15.1615
upperneck 12.3418 -17.64 15.4137
head 10.2111 -7.50935 4.82589
rclavicle -2.33572e-014 -3.57812e-015
rhumerus 31.6358 17.7875 -7.80715
rradius 52.712
rwrist 48.7396
rhand -68.1243 12.2271
rfingers 7.12502
rthumb -39.8462 -13.0452
lclavicle -2.33572e-014 -3.57812e-015
lhumerus -44.6782 15.9131 55.7715
lradius 40.4347
lwrist -7.10637
lhand -17.6555 21.549
lfingers 7.12502
lthumb 8.6028 51.3537
rfemur -15.1063 -0.265426 19.3293
rtibia 31.1295
rfoot -21.19 -9.74733
rtoes 6.57709
lfemur -8.83178 -4.55285 -7.48686
ltibia 21.6927
lfoot -0.126834 6.45403
ltoes -35.9727
1298
root -1.28779 17.961 1.5344 5.9005 1.90644 2.90633
lowerback 6.40861 1.7698 3.50366
upperback 2.02467 2.55471 -1.01464
thorax -1.30031 1.2819 -3.19737
lowerneck -21.2333 -13.9107 -15.0661
upperneck 12.5947 -17.5429 15.2498
head 10.2317 -7.47794 4.78245
rclavicle -9.0447e-015 1.70955e-014
rhumerus 32.4504 16.1103 -7.59487
rradius 52.4332
rwrist 48.5854
rhand -67.78 11.4834
rfingers 7.12502
rthumb -39.522 -13.885
lclavicle -9.0447e-015 1.70955e-014
lhumerus -45.2037 15.9583 55.7798
lradius 40.0935
lwrist -7.1505
lhand -17.5713 21.5937
lfingers 7.12502
lthumb 8.68403 51.3951
rfemur -14.959 -0.0448216 19.3661
rtibia 30.9555
rfoot -21.0647 -9.70813
rtoes 6.59716
lfemur -8.77313 -4.45008 -7.43182
ltibia 21.8487
lfoot 0.00648606 6.38797
ltoes -35.9214
1299
root -1.29131 17.9682 1.53688 5.93731 1.63766 2.97723
lowerback 6.5658 1.74944 3.67021
upperback 1.8434 2.54657 -0.983549
thorax -1.56935 1.26887 -3.26908
lowerneck -21.0977 -13.8567 -15.017
upperneck 12.8111 -17.5039 15.1199
head 10.2591 -7.47219 4.74429
rclavicle -3.47873e-015 1.27222e-014
rhumerus 33.7488 14.0655 -7.85321
rradius 51.4044
rwrist 48.3075
rhand -67.6952 11.3643
rfingers 7.12502
rthumb -39.4421 -14.0277
lclavicle -3.47873e-015 1.27222e-014
lhumerus -45.5262 16.0948 55.8854
lradius 39.7942
lwrist -7.13084
lhand -17.5982 21.9351
lfingers 7.12502
lthumb 8.65809 51.7375
rfemur -14.9374 0.147674 19.2727
rtibia 30.7987
rfoot -20.9031 -9.63944
rtoes 6.01411
lfemur -8.84686 -4.27766 -7.49521
ltibia 21.9945
lfoot 0.223289 6.24657
ltoes -36.2673
1300
root -1.29394 17.9756 1.54011 5.99649 1.34422 3.09197
lowerback 6.47336 1.76803 3.81032
upperback 1.88488 2.57637 -0.979657
thorax -1.46637 1.28668 -3.34102
lowerneck -21.2186 -13.8049 -14.8157
upperneck 12.8656 -17.4578 15.0174
head 10.2613 -7.44388 4.68398
rclavicle -7.10655e-014 -7.95139e-015
rhumerus 34.9695 11.7248 -8.15223
rradius 50.4874
rwrist 47.8068
rhand -67.157 10.9165
rfingers 7.12502
rthumb -38.9349 -14.6221
lclavicle -7.10655e-014 -7.95139e-015
lhumerus -45.481 16.2823 56.1357
lradius 39.5052
lwrist -7.01732
lhand -17.5468 21.9836
lfingers 7.12502
lthumb 8.70765 51.784
rfemur -14.9415 0.385591 19.1126
rtibia 30.6604
rfoot -20.7941 -9.52165
rtoes 6.29611
lfemur -8.94338 -4.08225 -7.61878
ltibia 22.1431
lfoot 0.44093 6.12697
ltoes -36.6579
1301
root -1.29567 17.9824 1.54631 5.99552 1.05694 3.22631
lowerback 6.51767 1.80596 3.91784
upperback 1.87799 2.6357 -0.964342
thorax -1.48874 1.31554 -3.39164
lowerneck -21.4274 -13.8047 -14.6561
upperneck 12.9102 -17.4618 14.9301
head 10.2885 -7.4342 4.62058
rclavicle 3.18055e-015 0
rhumerus 35.7382 9.58856 -8.31265
rradius 50.1485
rwrist 47.0249
rhand -66.6041 9.95626
rfingers 7.12502
rthumb -38.4133 -15.7293
lclavicle 3.18055e-015 0
lhumerus -45.5027 16.4501 56.3446
lradius 39.2027
lwrist -7.0148
lhand -17.408 21.3909
lfingers 7.12502
lthumb 8.84162 51.1857
rfemur -14.8907 0.583896 18.9298
rtibia 30.5513
rfoot -20.6464 -9.41018
rtoes 6.516
lfemur -8.9088 -4.002 -7.78134
ltibia 22.262
lfoot 0.582647 6.15746
ltoes -36.7599
1302
root -1.29886 17.9883 1.5507 5.93504 0.837049 3.29771
lowerback 6.6764 1.82225 4.05788
upperback 1.81526 2.67496 -0.904384
thorax -1.63469 1.33019 -3.41931
lowerneck -21.861 -13.8574 -14.3775
upperneck 13.2973 -17.5231 14.5372
head 10.4369 -7.45482 4.41089
rclavicle -3.93594e-014 5.56597e-015
rhumerus 36.5013 7.50857 -8.65174
rradius 49.7751
rwrist 46.3172
rhand -66.8729 7.82408
rfingers 7.12502
rthumb -38.667 -17.7905
lclavicle -3.93594e-014 5.56597e-015
lhumerus -45.5812 16.6465 56.5334
lradius 38.8518
lwrist -7.17604
lhand -17.5276 21.2728
lfingers 7.12502
lthumb 8.72624 51.0724
rfemur -14.7793 0.828314 18.8332
rtibia 30.445
rfoot -20.5699 -9.42768
rtoes 6.56115
lfemur -8.80511 -3.99004 -7.8611
ltibia 22.3737
lfoot 0.665961 6.20578
ltoes -36.7811
1303
root -1.30158 17.9925 1.55351 5.89541 0.651738 3.34651
lowerback 6.77201 1.83424 4.28794
upperback 1.76548 2.71156 -0.891007
thorax -1.72567 1.34484 -3.5427
lowerneck -22.401 -13.8661 -13.7911
upperneck 13.7686 -17.5464 13.8465
head 10.5643 -7.46693 4.05538
rclavicle -4.81059e-014 2.38542e-015
rhumerus 37.2637 5.32292 -9.29823
rradius 49.3325
rwrist 45.733
rhand -67.1206 6.72399
rfingers 7.12502
rthumb -38.9006 -18.8244
lclavicle -4.81059e-014 2.38542e-015
lhumerus -45.5788 16.8909 56.5566
lradius 38.4483
lwrist -7.84567
lhand -17.0695 21.0009
lfingers 7.12502
lthumb 9.16827 50.7816
rfemur -14.697 1.03147 18.7687
rtibia 30.3373
rfoot -20.4932 -9.43246
rtoes 6.39474
lfemur -8.76345 -3.99735 -7.90022
ltibia 22.4678
lfoot 0.806177 6.16924
ltoes -36.7674
1304
root -1.30455 17.998 1.5558 5.9357 0.473241 3.37421
lowerback 6.78942 1.85872 4.49081
upperback 1.74982 2.75993 -0.845581
thorax -1.73943 1.36779 -3.61424
lowerneck -22.4415 -13.8166 -13.4669
upperneck 13.6786 -17.5008 13.595
head 10.4721 -7.45668 3.92912
rclavicle 1.45113e-014 -3.97569e-015
rhumerus 38.1624 3.01469 -10.0966
rradius 48.7853
rwrist 45.115
rhand -66.9238 7.40467
rfingers 7.12502
rthumb -38.715 -18.1964
lclavicle 1.45113e-014 -3.97569e-015
lhumerus -45.5401 17.2665 56.5641
lradius 38.1401
lwrist -8.58454
lhand -16.034 20.4832
lfingers 7.12502
lthumb 10.1673 50.2176
rfemur -14.6947 1.21003 18.7244
rtibia 30.2183
rfoot -20.3687 -9.44078
rtoes 6.64479
lfemur -8.83738 -3.85989 -7.91601
ltibia 22.5455
lfoot 1.04199 6.01797
ltoes -36.8979
1305
root -1.30658 18.0055 1.56075 5.99807 0.294627 3.44089
lowerback 6.73298 1.88971 4.64846
upperback 1.77638 2.80985 -0.784067
thorax -1.6711 1.39459 -3.63938
lowerneck -21.9332 -13.7246 -13.5846
upperneck 13.0581 -17.4103 13.9968
head 10.2098 -7.42228 4.12887
rclavicle 3.85642e-014 -9.54166e-015
rhumerus 39.2333 0.657968 -10.968
rradius 48.146
rwrist 44.3176
rhand -66.7526 7.50186
rfingers 7.12502
rthumb -38.5535 -18.1446
lclavicle 3.85642e-014 -9.54166e-015
lhumerus -45.3963 17.4007 57.0002
lradius 38.0214
lwrist -8.13682
lhand -16.5592 21.6452
lfingers 7.12502
lthumb 9.66068 51.4036
rfemur -14.6948 1.37817 18.629
rtibia 30.0903
rfoot -20.2373 -9.44286
rtoes 6.68478
lfemur -8.89192 -3.77815 -7.98826
ltibia 22.5832
lfoot 1.28515 5.94991
ltoes -37.2504
